<svg id="visual" viewBox="0 0 540 960" width="540" height="960" xmlns="http://www.w3.org/2000/svg" xmlns:xlink="http://www.w3.org/1999/xlink" version="1.1"><path d="M385 960L444 960L444 918L425 918L425 877L474 877L474 835L414 835L414 793L403 793L403 751L445 751L445 710L485 710L485 668L423 668L423 626L406 626L406 584L466 584L466 543L492 543L492 501L435 501L435 459L453 459L453 417L480 417L480 376L488 376L488 334L465 334L465 292L396 292L396 250L447 250L447 209L451 209L451 167L423 167L423 125L480 125L480 83L414 83L414 42L439 42L439 0L540 0L540 42L540 42L540 83L540 83L540 125L540 125L540 167L540 167L540 209L540 209L540 250L540 250L540 292L540 292L540 334L540 334L540 376L540 376L540 417L540 417L540 459L540 459L540 501L540 501L540 543L540 543L540 584L540 584L540 626L540 626L540 668L540 668L540 710L540 710L540 751L540 751L540 793L540 793L540 835L540 835L540 877L540 877L540 918L540 918L540 960L540 960Z" fill="#d181ff"></path><path d="M495 960L499 960L499 918L489 918L489 877L478 877L478 835L477 835L477 793L462 793L462 751L483 751L483 710L449 710L449 668L499 668L499 626L503 626L503 584L469 584L469 543L432 543L432 501L477 501L477 459L441 459L441 417L426 417L426 376L434 376L434 334L453 334L453 292L468 292L468 250L452 250L452 209L488 209L488 167L489 167L489 125L426 125L426 83L514 83L514 42L499 42L499 0L540 0L540 42L540 42L540 83L540 83L540 125L540 125L540 167L540 167L540 209L540 209L540 250L540 250L540 292L540 292L540 334L540 334L540 376L540 376L540 417L540 417L540 459L540 459L540 501L540 501L540 543L540 543L540 584L540 584L540 626L540 626L540 668L540 668L540 710L540 710L540 751L540 751L540 793L540 793L540 835L540 835L540 877L540 877L540 918L540 918L540 960L540 960Z" fill="#9447c3"></path><path d="M490 960L535 960L535 918L521 918L521 877L493 877L493 835L500 835L500 793L532 793L532 751L499 751L499 710L520 710L520 668L527 668L527 626L467 626L467 584L479 584L479 543L487 543L487 501L537 501L537 459L476 459L476 417L475 417L475 376L463 376L463 334L505 334L505 292L499 292L499 250L503 250L503 209L541 209L541 167L467 167L467 125L538 125L538 83L500 83L500 42L540 42L540 0L540 0L540 42L540 42L540 83L540 83L540 125L540 125L540 167L540 167L540 209L540 209L540 250L540 250L540 292L540 292L540 334L540 334L540 376L540 376L540 417L540 417L540 459L540 459L540 501L540 501L540 543L540 543L540 584L540 584L540 626L540 626L540 668L540 668L540 710L540 710L540 751L540 751L540 793L540 793L540 835L540 835L540 877L540 877L540 918L540 918L540 960L540 960Z" fill="#58018a"></path></svg>