<svg id="visual" viewBox="0 0 960 540" width="960" height="540" xmlns="http://www.w3.org/2000/svg" xmlns:xlink="http://www.w3.org/1999/xlink" version="1.1"><path d="M684 540L788 540L788 517L755 517L755 493L842 493L842 470L736 470L736 446L716 446L716 423L790 423L790 399L861 399L861 376L751 376L751 352L722 352L722 329L827 329L827 305L873 305L873 282L772 282L772 258L804 258L804 235L852 235L852 211L866 211L866 188L827 188L827 164L704 164L704 141L794 141L794 117L801 117L801 94L751 94L751 70L853 70L853 47L735 47L735 23L779 23L779 0L960 0L960 23L960 23L960 47L960 47L960 70L960 70L960 94L960 94L960 117L960 117L960 141L960 141L960 164L960 164L960 188L960 188L960 211L960 211L960 235L960 235L960 258L960 258L960 282L960 282L960 305L960 305L960 329L960 329L960 352L960 352L960 376L960 376L960 399L960 399L960 423L960 423L960 446L960 446L960 470L960 470L960 493L960 493L960 517L960 517L960 540L960 540Z" fill="#d181ff"></path><path d="M879 540L886 540L886 517L868 517L868 493L849 493L849 470L848 470L848 446L820 446L820 423L858 423L858 399L798 399L798 376L886 376L886 352L894 352L894 329L832 329L832 305L767 305L767 282L847 282L847 258L783 258L783 235L757 235L757 211L771 211L771 188L805 188L805 164L832 164L832 141L802 141L802 117L866 117L866 94L869 94L869 70L757 70L757 47L912 47L912 23L886 23L886 0L960 0L960 23L960 23L960 47L960 47L960 70L960 70L960 94L960 94L960 117L960 117L960 141L960 141L960 164L960 164L960 188L960 188L960 211L960 211L960 235L960 235L960 258L960 258L960 282L960 282L960 305L960 305L960 329L960 329L960 352L960 352L960 376L960 376L960 399L960 399L960 423L960 423L960 446L960 446L960 470L960 470L960 493L960 493L960 517L960 517L960 540L960 540Z" fill="#9447c3"></path><path d="M870 540L949 540L949 517L925 517L925 493L876 493L876 470L887 470L887 446L945 446L945 423L886 423L886 399L924 399L924 376L937 376L937 352L830 352L830 329L851 329L851 305L864 305L864 282L954 282L954 258L846 258L846 235L843 235L843 211L823 211L823 188L897 188L897 164L887 164L887 141L894 141L894 117L961 117L961 94L830 94L830 70L955 70L955 47L889 47L889 23L959 23L959 0L960 0L960 23L960 23L960 47L960 47L960 70L960 70L960 94L960 94L960 117L960 117L960 141L960 141L960 164L960 164L960 188L960 188L960 211L960 211L960 235L960 235L960 258L960 258L960 282L960 282L960 305L960 305L960 329L960 329L960 352L960 352L960 376L960 376L960 399L960 399L960 423L960 423L960 446L960 446L960 470L960 470L960 493L960 493L960 517L960 517L960 540L960 540Z" fill="#58018a"></path></svg>