<svg width="462.8" height="72.802" viewBox="0 0 462.8 72.802" xmlns="http://www.w3.org/2000/svg"><g id="svgGroup" stroke-linecap="round" fill-rule="evenodd" font-size="9pt" stroke="#000" stroke-width="0.85mm" fill="#000" style="stroke:#000;stroke-width:0.85mm;fill:#000"><path d="M 345.5 49.6 L 304.4 49.6 L 304.4 43.2 L 340.6 43.2 L 338.5 45.5 A 29.961 29.961 0 0 0 338.152 40.773 Q 337.327 35.624 334.55 32.6 A 13.055 13.055 0 0 0 326.508 28.478 A 18.519 18.519 0 0 0 323.9 28.3 Q 319.4 28.3 315.55 30.5 A 15.807 15.807 0 0 0 309.883 36.068 A 19.158 19.158 0 0 0 309.4 36.9 A 17.886 17.886 0 0 0 307.607 41.889 Q 307.1 44.335 307.1 47.2 A 26.239 26.239 0 0 0 307.481 51.802 Q 307.946 54.411 308.978 56.543 A 15.199 15.199 0 0 0 309.6 57.7 Q 312.1 61.9 316.4 64.05 Q 320.7 66.2 326.1 66.2 Q 330.5 66.2 334.05 64.95 Q 337.6 63.7 340.9 61.6 L 343.9 67 A 36.035 36.035 0 0 1 338.99 69.727 A 44.307 44.307 0 0 1 335.65 71.1 Q 331 72.8 325.1 72.8 Q 317.8 72.8 311.85 69.8 Q 305.9 66.8 302.4 61.05 A 23.53 23.53 0 0 1 299.392 52.945 A 32.095 32.095 0 0 1 298.9 47.2 A 29.909 29.909 0 0 1 299.619 40.493 A 22.844 22.844 0 0 1 302.4 33.6 Q 305.9 27.9 311.55 24.85 Q 317.2 21.8 323.7 21.8 A 28.712 28.712 0 0 1 329.337 22.327 A 20.692 20.692 0 0 1 335.65 24.65 Q 340.6 27.5 343.25 32.6 A 23.071 23.071 0 0 1 345.496 39.484 A 31.039 31.039 0 0 1 345.9 44.6 A 35.755 35.755 0 0 1 345.826 46.933 A 32.139 32.139 0 0 1 345.8 47.3 Q 345.711 48.463 345.541 49.386 A 13.831 13.831 0 0 1 345.5 49.6 Z M 0 46.8 L 0 6 L 8.4 6 L 8.4 47 A 41.927 41.927 0 0 0 8.594 51.167 Q 8.798 53.21 9.219 54.923 A 17.45 17.45 0 0 0 10.2 57.85 A 15.065 15.065 0 0 0 11.867 60.745 A 10.716 10.716 0 0 0 15.15 63.7 A 13.779 13.779 0 0 0 21.475 65.485 A 16.46 16.46 0 0 0 22.2 65.5 A 15.196 15.196 0 0 0 26.541 64.899 A 13.217 13.217 0 0 0 29.35 63.7 Q 32.5 61.9 34.3 57.85 A 18.02 18.02 0 0 0 35.397 54.426 Q 35.781 52.689 35.956 50.631 A 43.131 43.131 0 0 0 36.1 47 L 36.1 6 L 44.2 6 L 44.2 46.8 Q 44.2 52.696 43.029 57.173 A 26.923 26.923 0 0 1 42.55 58.8 A 25.227 25.227 0 0 1 40.857 62.802 Q 39.648 65.062 38.053 66.743 A 15.777 15.777 0 0 1 37.95 66.85 Q 35 69.9 31 71.35 A 24.322 24.322 0 0 1 24.908 72.679 A 29.638 29.638 0 0 1 22.2 72.8 A 27.815 27.815 0 0 1 16.493 72.234 A 23.73 23.73 0 0 1 13.35 71.35 Q 9.3 69.9 6.3 66.85 A 17.776 17.776 0 0 1 3.352 62.802 A 24.661 24.661 0 0 1 1.65 58.8 Q 0.226 54.484 0.031 48.677 A 56.002 56.002 0 0 1 0 46.8 Z M 133.8 71.6 L 125.4 71.6 L 125.4 6 L 165.7 6 L 165.7 13 L 133.8 13 L 133.8 35.2 L 160.8 35.2 L 160.8 42.2 L 133.8 42.2 L 133.8 71.6 Z M 69.6 71.6 L 61.4 71.6 L 61.4 23 L 68.2 23 L 68.9 31.3 L 69.3 31.3 A 40.118 40.118 0 0 1 75.47 25.843 A 35.974 35.974 0 0 1 77.5 24.5 Q 81.9 21.8 87.6 21.8 A 23.408 23.408 0 0 1 92.423 22.265 Q 97.449 23.324 100.3 26.8 Q 103.463 30.658 104.186 37.253 A 38.12 38.12 0 0 1 104.4 41.4 L 104.4 71.6 L 96.2 71.6 L 96.2 42.5 A 29.365 29.365 0 0 0 95.994 38.9 Q 95.497 34.883 93.795 32.511 A 8.646 8.646 0 0 0 93.6 32.25 A 7.988 7.988 0 0 0 89.809 29.612 Q 88.436 29.134 86.737 28.977 A 18.903 18.903 0 0 0 85 28.9 Q 80.7 28.9 77.3 31.1 Q 73.9 33.3 69.6 37.7 L 69.6 71.6 Z M 369.6 71.6 L 361.4 71.6 L 361.4 23 L 368.2 23 L 368.9 31.3 L 369.3 31.3 A 40.118 40.118 0 0 1 375.47 25.843 A 35.974 35.974 0 0 1 377.5 24.5 Q 381.9 21.8 387.6 21.8 A 23.408 23.408 0 0 1 392.423 22.265 Q 397.449 23.324 400.3 26.8 Q 403.463 30.658 404.186 37.253 A 38.12 38.12 0 0 1 404.4 41.4 L 404.4 71.6 L 396.2 71.6 L 396.2 42.5 A 29.365 29.365 0 0 0 395.994 38.9 Q 395.497 34.883 393.795 32.511 A 8.646 8.646 0 0 0 393.6 32.25 A 7.988 7.988 0 0 0 389.809 29.612 Q 388.436 29.134 386.737 28.977 A 18.903 18.903 0 0 0 385 28.9 Q 380.7 28.9 377.3 31.1 Q 373.9 33.3 369.6 37.7 L 369.6 71.6 Z M 454.7 28.1 L 455 28.1 L 454.6 19.1 L 454.6 0.4 L 462.8 0.4 L 462.8 71.6 L 456 71.6 L 455.3 65.2 L 455 65.2 A 26.385 26.385 0 0 1 449.962 69.363 A 31.448 31.448 0 0 1 447.95 70.55 Q 443.8 72.8 439.2 72.8 A 21.964 21.964 0 0 1 431.874 71.628 A 18.671 18.671 0 0 1 423.9 66.15 A 21.884 21.884 0 0 1 419.505 57.991 Q 418.539 54.804 418.237 50.994 A 45.523 45.523 0 0 1 418.1 47.4 A 33.254 33.254 0 0 1 418.747 40.682 A 24.72 24.72 0 0 1 421.25 33.75 A 25.018 25.018 0 0 1 425.395 28.12 A 21.582 21.582 0 0 1 429.45 24.9 Q 434.5 21.8 440.2 21.8 A 19.479 19.479 0 0 1 445.282 22.445 A 17.097 17.097 0 0 1 448.05 23.45 A 23.498 23.498 0 0 1 453.322 26.852 A 27.724 27.724 0 0 1 454.7 28.1 Z M 194.9 71.6 L 186.7 71.6 L 186.7 23 L 193.5 23 L 194.2 34.5 L 194.5 34.5 A 29.982 29.982 0 0 1 200.892 27.311 A 27.731 27.731 0 0 1 203.9 25.2 Q 209.5 21.8 216.2 21.8 A 28.758 28.758 0 0 1 219.438 21.976 A 24.011 24.011 0 0 1 221.25 22.25 Q 223.6 22.7 225.8 23.8 L 223.9 30.9 Q 222.01 30.22 220.521 29.825 A 23.577 23.577 0 0 0 219.6 29.6 Q 217.8 29.2 214.9 29.2 Q 209.4 29.2 204.35 32.35 Q 199.3 35.5 194.9 43.1 L 194.9 71.6 Z M 271.9 71.6 L 263.7 71.6 L 263.7 29.7 L 241.1 29.7 L 241.1 23 L 271.9 23 L 271.9 71.6 Z M 454.6 58.6 L 454.6 34.4 Q 451.805 31.775 449.118 30.441 A 15.307 15.307 0 0 0 448.15 30 A 16.802 16.802 0 0 0 442.998 28.746 A 15.725 15.725 0 0 0 441.8 28.7 Q 437.6 28.7 434.15 31.05 Q 430.7 33.4 428.65 37.55 A 19.365 19.365 0 0 0 426.945 42.951 A 26.25 26.25 0 0 0 426.6 47.3 A 32.27 32.27 0 0 0 427.009 52.606 Q 427.847 57.625 430.4 60.95 A 12.212 12.212 0 0 0 439.27 65.823 A 16.769 16.769 0 0 0 440.9 65.9 A 14.292 14.292 0 0 0 447.261 64.381 A 16.983 16.983 0 0 0 447.9 64.05 Q 451.088 62.316 454.187 59.044 A 37.089 37.089 0 0 0 454.6 58.6 Z M 264.473 12.416 A 7.398 7.398 0 0 0 266.9 12.8 A 8.574 8.574 0 0 0 267.417 12.785 A 6.565 6.565 0 0 0 271.6 11.05 A 5.648 5.648 0 0 0 273.21 8.491 A 7.184 7.184 0 0 0 273.5 6.4 A 8.092 8.092 0 0 0 273.453 5.521 A 5.802 5.802 0 0 0 271.6 1.75 A 6.412 6.412 0 0 0 269.327 0.385 A 7.398 7.398 0 0 0 266.9 0 A 8.574 8.574 0 0 0 266.383 0.016 A 6.565 6.565 0 0 0 262.2 1.75 A 5.648 5.648 0 0 0 260.59 4.31 A 7.184 7.184 0 0 0 260.3 6.4 A 8.092 8.092 0 0 0 260.347 7.28 A 5.802 5.802 0 0 0 262.2 11.05 A 6.412 6.412 0 0 0 264.473 12.416 Z" vector-effect="non-scaling-stroke"/></g></svg>